<?xml version="1.0" standalone="no"?>
<!DOCTYPE svg PUBLIC "-//W3C//DTD SVG 20010904//EN"
 "http://www.w3.org/TR/2001/REC-SVG-20010904/DTD/svg10.dtd">
<svg version="1.0" xmlns="http://www.w3.org/2000/svg"
 width="300.000000pt" height="300.000000pt" viewBox="0 0 300.000000 300.000000"
 preserveAspectRatio="xMidYMid meet">
<metadata>
Created by potrace 1.14, written by Peter Selinger 2001-2017
</metadata>
<g transform="translate(0.000000,300.000000) scale(0.100000,-0.100000)"
fill="#000000" stroke="none">
<path d="M285 2986 c-96 -30 -168 -83 -218 -159 -71 -107 -68 -31 -65 -1348
l3 -1184 27 -58 c37 -79 78 -128 141 -170 107 -71 31 -68 1348 -65 l1184 3 58
27 c79 37 128 78 170 141 71 107 68 31 65 1348 l-3 1184 -27 58 c-37 79 -78
128 -141 170 -106 71 -31 67 -1331 66 -915 0 -1180 -3 -1211 -13z m183 -968
c35 -81 68 -146 71 -143 4 2 36 69 71 149 60 138 65 146 92 146 l28 0 0 -190
0 -190 -25 0 -25 0 0 131 c0 71 -4 128 -8 125 -4 -2 -32 -61 -62 -130 -71
-163 -75 -163 -148 -1 -29 66 -57 124 -63 130 -5 5 -9 -41 -9 -123 l0 -132
-25 0 -25 0 0 191 0 190 31 -3 c30 -3 34 -9 97 -150z m569 52 c47 -29 66 -72
61 -141 -3 -45 -10 -65 -29 -85 -51 -55 -120 -69 -186 -37 -98 46 -105 205
-11 263 44 26 122 27 165 0z m193 5 c0 -19 9 -19 34 0 24 18 85 19 121 3 44
-20 55 -55 55 -178 0 -110 0 -110 -24 -110 -24 0 -24 1 -28 110 -4 128 -13
145 -79 145 -66 0 -79 -25 -79 -151 l0 -104 -30 0 -30 0 0 150 0 150 30 0 c20
0 30 -5 30 -15z m-670 -658 c0 -275 2 -305 19 -337 26 -49 60 -70 122 -76 68
-7 133 24 164 76 19 33 20 55 23 338 l4 302 104 0 105 0 -3 -322 -3 -323 -28
-60 c-65 -138 -178 -205 -347 -205 -148 0 -252 47 -316 145 -55 82 -64 147
-64 478 l0 287 110 0 110 0 0 -303z m1290 218 l0 -85 -185 0 -185 0 0 -100 0
-100 140 0 140 0 0 -85 0 -85 -140 0 -140 0 0 -185 0 -185 -110 0 -110 0 0
455 0 455 295 0 295 0 0 -85z m645 60 c64 -24 146 -105 163 -161 7 -23 12 -70
12 -106 0 -107 -65 -207 -157 -240 -18 -7 -33 -17 -33 -23 0 -5 45 -86 100
-180 l100 -170 -117 -3 c-64 -1 -120 1 -124 5 -4 4 -49 83 -99 176 -86 156
-94 167 -121 167 l-29 0 0 -175 0 -175 -110 0 -110 0 0 456 0 456 238 -4 c200
-4 245 -7 287 -23z"/>
<path d="M907 2034 c-46 -25 -61 -97 -32 -153 16 -33 33 -41 80 -41 72 0 115
80 81 152 -26 55 -76 71 -129 42z"/>
<path d="M2190 1426 l0 -116 93 0 c108 0 135 11 161 63 22 46 16 95 -19 134
-22 27 -28 28 -129 31 l-106 4 0 -116z"/>
</g>
</svg>
