<svg width="300" height="300" viewBox="0 0 300 300" fill="none" xmlns="http://www.w3.org/2000/svg">
<rect width="300" height="300" rx="40" fill="#75D0A4"/>
<path d="M56.1207 127.74V182.34C56.1207 187.8 57.464 192.003 60.1507 194.95C62.8374 197.897 66.7807 199.37 71.9807 199.37C77.1807 199.37 81.1674 197.897 83.9407 194.95C86.714 192.003 88.1007 187.8 88.1007 182.34V127.74H110.331V182.21C110.331 190.357 108.597 197.247 105.131 202.88C101.664 208.513 96.984 212.76 91.0907 215.62C85.284 218.48 78.784 219.91 71.5907 219.91C64.3974 219.91 57.9407 218.523 52.2207 215.75C46.5874 212.89 42.124 208.643 38.8307 203.01C35.5374 197.29 33.8907 190.357 33.8907 182.21V127.74H56.1207ZM185.351 127.74V145.55H148.171V164.79H175.991V182.08H148.171V219H125.941V127.74H185.351ZM243.575 219L224.595 184.55H219.265V219H197.035V127.74H234.345C241.538 127.74 247.648 128.997 252.675 131.51C257.788 134.023 261.601 137.49 264.115 141.91C266.628 146.243 267.885 151.097 267.885 156.47C267.885 162.537 266.151 167.953 262.685 172.72C259.305 177.487 254.278 180.867 247.605 182.86L268.665 219H243.575ZM219.265 168.82H233.045C237.118 168.82 240.151 167.823 242.145 165.83C244.225 163.837 245.265 161.02 245.265 157.38C245.265 153.913 244.225 151.183 242.145 149.19C240.151 147.197 237.118 146.2 233.045 146.2H219.265V168.82Z" fill="white"/>
<path d="M73.739 82.775V121H67.469V94.82L55.809 121H51.464L39.749 94.82V121H33.479V82.775H40.244L53.664 112.75L67.029 82.775H73.739ZM95.125 121.495C92.265 121.495 89.68 120.853 87.37 119.57C85.06 118.25 83.245 116.417 81.925 114.07C80.605 111.687 79.945 108.937 79.945 105.82C79.945 102.74 80.6233 100.008 81.98 97.625C83.3366 95.2417 85.1883 93.4083 87.535 92.125C89.8816 90.8417 92.5033 90.2 95.4 90.2C98.2966 90.2 100.918 90.8417 103.265 92.125C105.612 93.4083 107.463 95.2417 108.82 97.625C110.177 100.008 110.855 102.74 110.855 105.82C110.855 108.9 110.158 111.632 108.765 114.015C107.372 116.398 105.465 118.25 103.045 119.57C100.662 120.853 98.0216 121.495 95.125 121.495ZM95.125 116.05C96.7383 116.05 98.2416 115.665 99.635 114.895C101.065 114.125 102.22 112.97 103.1 111.43C103.98 109.89 104.42 108.02 104.42 105.82C104.42 103.62 103.998 101.768 103.155 100.265C102.312 98.725 101.193 97.57 99.8 96.8C98.4066 96.03 96.9033 95.645 95.29 95.645C93.6766 95.645 92.1733 96.03 90.78 96.8C89.4233 97.57 88.3416 98.725 87.535 100.265C86.7283 101.768 86.325 103.62 86.325 105.82C86.325 109.083 87.15 111.613 88.8 113.41C90.4866 115.17 92.595 116.05 95.125 116.05ZM132.343 90.2C134.727 90.2 136.853 90.695 138.723 91.685C140.63 92.675 142.115 94.1417 143.178 96.085C144.242 98.0283 144.773 100.375 144.773 103.125V121H138.558V104.06C138.558 101.347 137.88 99.275 136.523 97.845C135.167 96.3783 133.315 95.645 130.968 95.645C128.622 95.645 126.752 96.3783 125.358 97.845C124.002 99.275 123.323 101.347 123.323 104.06V121H117.053V90.695H123.323V94.16C124.35 92.9133 125.652 91.9417 127.228 91.245C128.842 90.5483 130.547 90.2 132.343 90.2Z" fill="white"/>
</svg>
